<svg width="18" height="18" viewBox="0 0 18 18" fill="none" xmlns="http://www.w3.org/2000/svg">
<path d="M9 16.5021L1.19979 12.906C1.22679 12.9223 0.509618 12.5984 0 12.307C0 12.7418 0.109118 13.5389 0.514706 13.7537L8.15121 17.1867C8.82621 17.505 9.117 17.505 9.84826 17.1867L17.4848 13.7537C17.8622 13.5782 18 12.7519 18 12.307C17.5089 12.5528 16.8137 12.9032 16.8002 12.906L9 16.5021ZM9 1.51878C9.04162 1.53228 9.05624 1.5846 9 1.51878ZM0.514706 10.1577L8.15121 13.5906C8.82621 13.909 9.117 13.909 9.84826 13.5906L17.4848 10.1577C17.8622 9.98216 18 9.15587 18 8.7109C17.5089 8.95672 16.8137 9.30716 16.8002 9.30999L9 12.906L1.19979 9.30999C1.22679 9.32631 0.509618 9.00228 0 8.7109C0 9.14572 0.109118 9.94281 0.514706 10.1577ZM0.514706 6.5616L8.15121 9.99454C8.82621 10.3129 9.117 10.3129 9.84826 9.99454L17.4848 6.5616C18.0473 6.29949 18.0658 5.1846 17.4848 4.86622L9.84826 0.834221C9.24862 0.478721 8.82621 0.49728 8.15118 0.834221L0.514706 4.86622C-0.0663823 5.24084 -0.0849412 6.24322 0.514706 6.5616ZM9 1.51878L16.8002 5.7139L9 9.00116L1.19979 5.7139L9 1.51878Z" fill="#939393"/>
</svg>
