<svg width="21" height="21" viewBox="0 0 21 21" fill="none" xmlns="http://www.w3.org/2000/svg">
<g clip-path="url(#clip0)">
<path d="M16 8.22855H5.00005C4.86454 8.22855 4.74734 8.28082 4.64842 8.38545C4.54945 8.49002 4.5 8.61392 4.5 8.75708V16.6857C4.5 16.8288 4.54945 16.9528 4.64842 17.0573C4.74734 17.162 4.86454 17.2143 5.00005 17.2143H16C16.1355 17.2143 16.2526 17.162 16.3516 17.0573C16.4505 16.9528 16.4999 16.8288 16.4999 16.6857V8.75708C16.4999 8.61383 16.4507 8.49005 16.3516 8.38545C16.2527 8.28082 16.1355 8.22855 16 8.22855ZM11.8514 10.7145C11.7526 10.8191 11.6353 10.8714 11.4999 10.8714H9.49988C9.36454 10.8714 9.24734 10.819 9.14833 10.7145C9.04941 10.6098 8.99991 10.486 8.99991 10.3428C8.99991 10.1996 9.04941 10.0757 9.14833 9.97112C9.24731 9.86649 9.36451 9.81416 9.49988 9.81416H11.5001C11.6354 9.81416 11.7526 9.86649 11.8516 9.97112C11.9505 10.0757 12 10.1996 12 10.3428C12 10.486 11.9504 10.6098 11.8514 10.7145Z" fill="#C2AE67"/>
<path d="M16.8517 4.68544C16.7527 4.58081 16.6356 4.52853 16.5001 4.52853H4.49999C4.3646 4.52853 4.2474 4.58081 4.14845 4.68544C4.0495 4.79001 4 4.91391 4 5.05707V7.17136C4 7.3145 4.0495 7.43834 4.14848 7.543C4.24742 7.64763 4.3646 7.6999 4.50002 7.6999H16.5C16.6353 7.6999 16.7526 7.64763 16.8517 7.543C16.9506 7.43836 17 7.31453 17 7.17136V5.05707C17 4.91382 16.9506 4.79001 16.8517 4.68544Z" fill="#C2AE67"/>
</g>
<defs>
<clipPath id="clip0">
<rect x="4" y="4" width="13" height="13.7429" fill="white"/>
</clipPath>
</defs>
</svg>
