<svg width="21" height="21" viewBox="0 0 21 21" fill="none" xmlns="http://www.w3.org/2000/svg">
<path d="M14.7753 18.4124C14.6753 18.4127 14.5767 18.3871 14.4882 18.3378L10.1307 15.9153L5.77239 18.3378C5.67081 18.394 5.55641 18.419 5.44209 18.4101C5.32776 18.4012 5.21806 18.3588 5.12535 18.2875C5.03264 18.2162 4.96062 18.119 4.91739 18.0067C4.87416 17.8945 4.86146 17.7717 4.88071 17.6523L5.71332 12.522L2.18598 8.88848C2.10372 8.80379 2.04552 8.69645 2.01797 8.57861C1.99042 8.46077 1.99462 8.33713 2.03008 8.22167C2.06555 8.10622 2.13087 8.00357 2.21865 7.92532C2.30644 7.84707 2.41319 7.79636 2.52682 7.77891L7.39988 7.03053L9.57904 2.36246C9.62986 2.25366 9.70845 2.16205 9.80594 2.098C9.90343 2.03395 10.0159 2 10.1307 2C10.2455 2 10.358 2.03395 10.4555 2.098C10.553 2.16205 10.6315 2.25366 10.6824 2.36246L12.8615 7.03053L17.7342 7.77891C17.8478 7.79629 17.9546 7.84696 18.0425 7.92518C18.1303 8.0034 18.1957 8.10605 18.2312 8.22151C18.2667 8.33697 18.2709 8.46064 18.2434 8.57851C18.2159 8.69639 18.1577 8.80376 18.0754 8.88848L14.5481 12.522L15.3807 17.6523C15.3958 17.7456 15.3915 17.8413 15.368 17.9326C15.3445 18.024 15.3024 18.1088 15.2446 18.1812C15.1869 18.2536 15.1149 18.3118 15.0337 18.3517C14.9525 18.3916 14.8649 18.4123 14.7753 18.4124Z" fill="#FFE600"/>
</svg>
