<svg width="21" height="21" viewBox="0 0 21 21" fill="none" xmlns="http://www.w3.org/2000/svg">
<path d="M9.7888 18.8314C7.96193 18.7062 6.47461 18.2073 5.83198 17.5041C5.60316 17.2538 5.54123 17.1197 5.47343 16.7279C5.28629 15.6465 3.44754 5.75357 3.39946 5.56939C3.07025 4.30836 4.41354 3.16622 6.96178 2.54052C7.54537 2.39722 8.43211 2.25532 9.13577 2.19261C9.76755 2.13632 11.2339 2.13632 11.8657 2.19261C14.9484 2.46731 17.2561 3.52992 17.6038 4.83485C17.6709 5.08682 17.6652 5.27942 17.5802 5.62784C17.4883 6.00474 15.5056 16.7514 15.5056 16.8728C15.5056 16.922 15.4554 17.0628 15.394 17.1857C15.0825 17.809 14.0381 18.3614 12.6277 18.6488C11.8426 18.8088 10.6127 18.8879 9.7888 18.8314V18.8314Z" fill="#DEDEDE"/>
<path d="M9.67851 7.34148C7.45533 7.23065 5.40094 6.61494 4.51379 5.79359C4.28865 5.58515 4.10918 5.28783 4.1098 5.12434C4.11086 4.84765 4.45111 4.43418 4.92843 4.12954C6.97122 2.82577 11.1985 2.47858 14.2974 3.36006C15.3678 3.66455 16.1766 4.07942 16.6233 4.55319C16.9254 4.87351 16.9824 5.07676 16.8511 5.36591C16.5426 6.0453 15.1691 6.73703 13.4409 7.08333C12.7453 7.22273 12.0831 7.30187 11.2626 7.34366C10.5444 7.38024 10.4534 7.38011 9.67851 7.34148Z" fill="#ACACAC"/>
</svg>
